<svg width="24" height="23" viewBox="0 0 24 23" fill="none" xmlns="http://www.w3.org/2000/svg">
<path d="M5.85 16.3875C6.7 15.7646 7.65 15.2735 8.7 14.9141C9.75 14.5547 10.85 14.375 12 14.375C13.15 14.375 14.25 14.5547 15.3 14.9141C16.35 15.2735 17.3 15.7646 18.15 16.3875C18.7333 15.7327 19.1875 14.99 19.5125 14.1594C19.8375 13.3288 20 12.4424 20 11.5C20 9.37571 19.2208 7.56686 17.6625 6.07346C16.1042 4.58006 14.2167 3.83335 12 3.83335C9.78333 3.83335 7.89583 4.58006 6.3375 6.07346C4.77917 7.56686 4 9.37571 4 11.5C4 12.4424 4.1625 13.3288 4.4875 14.1594C4.8125 14.99 5.26667 15.7327 5.85 16.3875ZM12 12.4584C11.0167 12.4584 10.1875 12.1349 9.5125 11.488C8.8375 10.8412 8.5 10.0465 8.5 9.10419C8.5 8.16183 8.8375 7.36721 9.5125 6.72033C10.1875 6.07346 11.0167 5.75002 12 5.75002C12.9833 5.75002 13.8125 6.07346 14.4875 6.72033C15.1625 7.36721 15.5 8.16183 15.5 9.10419C15.5 10.0465 15.1625 10.8412 14.4875 11.488C13.8125 12.1349 12.9833 12.4584 12 12.4584ZM12 21.0834C10.6167 21.0834 9.31667 20.8318 8.1 20.3287C6.88333 19.8255 5.825 19.1427 4.925 18.2802C4.025 17.4177 3.3125 16.4035 2.7875 15.2375C2.2625 14.0715 2 12.8257 2 11.5C2 10.1743 2.2625 8.92849 2.7875 7.76252C3.3125 6.59655 4.025 5.58231 4.925 4.71981C5.825 3.85731 6.88333 3.1745 8.1 2.67137C9.31667 2.16825 10.6167 1.91669 12 1.91669C13.3833 1.91669 14.6833 2.16825 15.9 2.67137C17.1167 3.1745 18.175 3.85731 19.075 4.71981C19.975 5.58231 20.6875 6.59655 21.2125 7.76252C21.7375 8.92849 22 10.1743 22 11.5C22 12.8257 21.7375 14.0715 21.2125 15.2375C20.6875 16.4035 19.975 17.4177 19.075 18.2802C18.175 19.1427 17.1167 19.8255 15.9 20.3287C14.6833 20.8318 13.3833 21.0834 12 21.0834Z" fill="black"/>
</svg>
