<svg width="27" height="23" viewBox="0 0 27 23" fill="none" xmlns="http://www.w3.org/2000/svg">
<g clip-path="url(#clip0_237_1269)">
<path d="M13.5 14.375C15.364 14.375 16.875 13.0878 16.875 11.5C16.875 9.91216 15.364 8.62498 13.5 8.62498C11.636 8.62498 10.125 9.91216 10.125 11.5C10.125 13.0878 11.636 14.375 13.5 14.375Z" stroke="black" stroke-width="3" stroke-linecap="round" stroke-linejoin="round"/>
<path d="M21.825 14.375C21.6752 14.664 21.6306 14.9847 21.6967 15.2955C21.7629 15.6064 21.9369 15.8933 22.1963 16.1191L22.2638 16.1766C22.4729 16.3547 22.6389 16.566 22.7521 16.7987C22.8654 17.0314 22.9236 17.2808 22.9236 17.5327C22.9236 17.7846 22.8654 18.034 22.7521 18.2667C22.6389 18.4993 22.4729 18.7107 22.2638 18.8887C22.0548 19.0669 21.8066 19.2083 21.5335 19.3048C21.2603 19.4012 20.9676 19.4509 20.6719 19.4509C20.3762 19.4509 20.0834 19.4012 19.8103 19.3048C19.5371 19.2083 19.289 19.0669 19.08 18.8887L19.0125 18.8312C18.7474 18.6103 18.4106 18.4621 18.0457 18.4057C17.6807 18.3494 17.3043 18.3874 16.965 18.515C16.6323 18.6365 16.3485 18.8382 16.1486 19.0953C15.9487 19.3524 15.8414 19.6537 15.84 19.9621V20.125C15.84 20.6333 15.6029 21.1208 15.181 21.4803C14.759 21.8397 14.1867 22.0416 13.59 22.0416C12.9933 22.0416 12.421 21.8397 11.999 21.4803C11.5771 21.1208 11.34 20.6333 11.34 20.125V20.0387C11.3313 19.7215 11.2108 19.4139 10.9941 19.1558C10.7774 18.8977 10.4746 18.7012 10.125 18.5916C9.78568 18.4641 9.40928 18.426 9.04434 18.4824C8.67939 18.5388 8.34264 18.687 8.0775 18.9079L8.01 18.9654C7.80104 19.1436 7.55289 19.285 7.27974 19.3814C7.0066 19.4779 6.71381 19.5275 6.41813 19.5275C6.12244 19.5275 5.82965 19.4779 5.55651 19.3814C5.28336 19.285 5.03521 19.1436 4.82625 18.9654C4.61705 18.7874 4.4511 18.576 4.33787 18.3433C4.22464 18.1106 4.16636 17.8612 4.16636 17.6094C4.16636 17.3575 4.22464 17.1081 4.33787 16.8754C4.4511 16.6427 4.61705 16.4313 4.82625 16.2533L4.89375 16.1958C5.1531 15.97 5.32708 15.6831 5.39326 15.3722C5.45943 15.0613 5.41475 14.7407 5.265 14.4516C5.12239 14.1682 4.8856 13.9265 4.58377 13.7562C4.28195 13.5859 3.92826 13.4945 3.56625 13.4933H3.375C2.77826 13.4933 2.20597 13.2914 1.78401 12.9319C1.36205 12.5725 1.125 12.085 1.125 11.5766C1.125 11.0683 1.36205 10.5808 1.78401 10.2214C2.20597 9.86191 2.77826 9.65998 3.375 9.65998H3.47625C3.84862 9.65256 4.20976 9.54989 4.51271 9.3653C4.81567 9.18072 5.04643 8.92277 5.175 8.62498C5.32475 8.33593 5.36943 8.01529 5.30326 7.70442C5.23708 7.39354 5.0631 7.10667 4.80375 6.88081L4.73625 6.82331C4.52705 6.64531 4.3611 6.43392 4.24787 6.20124C4.13464 5.96856 4.07636 5.71915 4.07636 5.46727C4.07636 5.21539 4.13464 4.96598 4.24787 4.7333C4.3611 4.50062 4.52705 4.28924 4.73625 4.11123C4.94521 3.93302 5.19336 3.79165 5.46651 3.6952C5.73966 3.59874 6.03244 3.5491 6.32813 3.5491C6.62381 3.5491 6.9166 3.59874 7.18974 3.6952C7.46289 3.79165 7.71104 3.93302 7.92 4.11123L7.9875 4.16873C8.25264 4.38966 8.58939 4.53787 8.95434 4.59423C9.31928 4.6506 9.69568 4.61255 10.035 4.48498H10.125C10.4577 4.3635 10.7415 4.16179 10.9414 3.90468C11.1413 3.64756 11.2486 3.34628 11.25 3.0379V2.87498C11.25 2.36665 11.4871 1.87914 11.909 1.51969C12.331 1.16025 12.9033 0.958313 13.5 0.958313C14.0967 0.958313 14.669 1.16025 15.091 1.51969C15.5129 1.87914 15.75 2.36665 15.75 2.87498V2.96123C15.7514 3.26961 15.8587 3.5709 16.0586 3.82801C16.2585 4.08512 16.5423 4.28683 16.875 4.40831C17.2143 4.53588 17.5907 4.57394 17.9557 4.51757C18.3206 4.4612 18.6574 4.31299 18.9225 4.09206L18.99 4.03456C19.199 3.85636 19.4471 3.71499 19.7203 3.61853C19.9934 3.52208 20.2862 3.47243 20.5819 3.47243C20.8776 3.47243 21.1703 3.52208 21.4435 3.61853C21.7166 3.71499 21.9648 3.85636 22.1738 4.03456C22.3829 4.21257 22.5489 4.42396 22.6621 4.65664C22.7754 4.88932 22.8336 5.13873 22.8336 5.3906C22.8336 5.64248 22.7754 5.89189 22.6621 6.12457C22.5489 6.35725 22.3829 6.56864 22.1738 6.74665L22.1063 6.80415C21.8469 7.03001 21.6729 7.31687 21.6067 7.62775C21.5406 7.93863 21.5852 8.25926 21.735 8.54831V8.62498C21.8776 8.90843 22.1144 9.15016 22.4162 9.32044C22.7181 9.49071 23.0717 9.58208 23.4338 9.58331H23.625C24.2217 9.58331 24.794 9.78525 25.216 10.1447C25.6379 10.5041 25.875 10.9916 25.875 11.5C25.875 12.0083 25.6379 12.4958 25.216 12.8553C24.794 13.2147 24.2217 13.4166 23.625 13.4166H23.5238C23.1617 13.4179 22.8081 13.5093 22.5062 13.6795C22.2044 13.8498 21.9676 14.0915 21.825 14.375Z" stroke="black" stroke-width="3" stroke-linecap="round" stroke-linejoin="round"/>
</g>
<defs>
<clipPath id="clip0_237_1269">
<rect width="27" height="23" fill="white"/>
</clipPath>
</defs>
</svg>
